HIERARCHY
ROOT Hips
{
	OFFSET 0.00000 0.00000 0.00000
	CHANNELS 6 Xposition Yposition Zposition Zrotation Yrotation Xrotation 
	JOINT LHipJoint
	{
		OFFSET 0 0 0
		CHANNELS 3 Zrotation Yrotation Xrotation
		JOINT LeftUpLeg
		{
			OFFSET 1.30186 -1.90722 0.65024
			CHANNELS 3 Zrotation Yrotation Xrotation
			JOINT LeftLeg
			{
				OFFSET 2.56413 -7.04489 0.00000
				CHANNELS 3 Zrotation Yrotation Xrotation
				JOINT LeftFoot
				{
					OFFSET 2.79321 -7.67428 0.00000
					CHANNELS 3 Zrotation Yrotation Xrotation
					JOINT LeftToeBase
					{
						OFFSET 0.15723 -0.43198 2.08537
						CHANNELS 3 Zrotation Yrotation Xrotation
						End Site
						{
							OFFSET 0.00000 -0.00000 1.07411
						}
					}
				}
			}
		}
	}
	JOINT RHipJoint
	{
		OFFSET 0 0 0
		CHANNELS 3 Zrotation Yrotation Xrotation
		JOINT RightUpLeg
		{
			OFFSET -1.28627 -1.90723 0.65024
			CHANNELS 3 Zrotation Yrotation Xrotation
			JOINT RightLeg
			{
				OFFSET -2.56567 -7.04913 0.00000
				CHANNELS 3 Zrotation Yrotation Xrotation
				JOINT RightFoot
				{
					OFFSET -2.75597 -7.57198 0.00000
					CHANNELS 3 Zrotation Yrotation Xrotation
					JOINT RightToeBase
					{
						OFFSET -0.17500 -0.48081 2.22901
						CHANNELS 3 Zrotation Yrotation Xrotation
						End Site
						{
							OFFSET -0.00000 -0.00000 1.14762
						}
					}
				}
			}
		}
	}
	JOINT LowerBack
	{
		OFFSET 0 0 0
		CHANNELS 3 Zrotation Yrotation Xrotation
		JOINT Spine
		{
			OFFSET -0.04522 2.07467 -0.16566
			CHANNELS 3 Zrotation Yrotation Xrotation
			JOINT Spine1
			{
				OFFSET -0.01178 2.08825 -0.05393
				CHANNELS 3 Zrotation Yrotation Xrotation
				JOINT Neck
				{
					OFFSET 0 0 0
					CHANNELS 3 Zrotation Yrotation Xrotation
					JOINT Neck1
					{
						OFFSET -0.05182 1.80489 0.16014
						CHANNELS 3 Zrotation Yrotation Xrotation
						JOINT Head
						{
							OFFSET 0.14739 1.78840 -0.33342
							CHANNELS 3 Zrotation Yrotation Xrotation
							End Site
							{
								OFFSET 0.04364 1.83899 -0.13460
							}
						}
					}
				}
				JOINT LeftShoulder
				{
					OFFSET 0 0 0
					CHANNELS 3 Zrotation Yrotation Xrotation
					JOINT LeftArm
					{
						OFFSET 3.01264 1.29090 -0.06579
						CHANNELS 3 Zrotation Yrotation Xrotation
						JOINT LeftForeArm
						{
							OFFSET 5.55680 -0.00000 0.00000
							CHANNELS 3 Zrotation Yrotation Xrotation
							JOINT LeftHand
							{
								OFFSET 3.63979 -0.00000 -0.00000
								CHANNELS 3 Zrotation Yrotation Xrotation
								JOINT LeftFingerBase
								{
									OFFSET 0 0 0
									CHANNELS 3 Zrotation Yrotation Xrotation
									JOINT LeftHandIndex1
									{
										OFFSET 0.56942 -0.00000 -0.00000
										CHANNELS 3 Zrotation Yrotation Xrotation
										End Site
										{
											OFFSET 0.45908 -0.00000 -0.00000
										}
									}
								}
								JOINT LThumb
								{
									OFFSET 0 0 0
									CHANNELS 3 Zrotation Yrotation Xrotation
									End Site
									{
										OFFSET 0.46609 -0.00000 0.46609
									}
								}
							}
						}
					}
				}
				JOINT RightShoulder
				{
					OFFSET 0 0 0
					CHANNELS 3 Zrotation Yrotation Xrotation
					JOINT RightArm
					{
						OFFSET -3.15796 1.37283 -0.36748
						CHANNELS 3 Zrotation Yrotation Xrotation
						JOINT RightForeArm
						{
							OFFSET -5.34339 -0.00000 0.00000
							CHANNELS 3 Zrotation Yrotation Xrotation
							JOINT RightHand
							{
								OFFSET -3.65101 -0.00000 -0.00000
								CHANNELS 3 Zrotation Yrotation Xrotation
								JOINT RightFingerBase
								{
									OFFSET 0 0 0
									CHANNELS 3 Zrotation Yrotation Xrotation
									JOINT RightHandIndex1
									{
										OFFSET -0.69425 -0.00000 -0.00000
										CHANNELS 3 Zrotation Yrotation Xrotation
										End Site
										{
											OFFSET -0.55972 -0.00000 -0.00000
										}
									}
								}
								JOINT RThumb
								{
									OFFSET 0 0 0
									CHANNELS 3 Zrotation Yrotation Xrotation
									End Site
									{
										OFFSET -0.56827 -0.00000 0.56827
									}
								}
							}
						}
					}
				}
			}
		}
	}
}
MOTION
Frames: 10
Frame Time: 0.0229885
0.00 0.00 0.00 2.0855 19.3689 -0.4065 0.0000 0.0000 0.0000 -15.9252 -12.7009 3.6206 0.2007 2.8847 7.9578 -0.0634 -6.6813 -2.8615 0.1969 -2.8575 -7.8824 0.0000 0.0000 0.0000 14.6245 6.0917 3.4861 -0.3703 -3.9086 10.8197 1.2949 -22.4390 -20.2094 -0.8457 -5.8657 16.3954 3.3766 3.1924 -2.6127 2.2765 4.1308 -0.2201 0.6046 2.0777 1.3063 -5.0456 -4.4187 -7.1739 -3.7948 -4.0487 29.4263 -0.9258 -2.7246 10.6698 0.0000 -0.0000 0.0000 -81.0468 2.5548 35.4245 130.8619 -52.6419 -94.5125 -0.0000 -0.0000 13.1594 30.7090 11.6488 6.8388 -7.1250 0.0000 -0.0000 3.2406 43.4404 -0.1249 0.0000 -0.0000 0.0000 92.9103 21.0812 62.5930 -45.9379 51.2198 -22.9676 0.0000 0.0000 9.3428 -35.9869 39.8597 -24.9585 7.1250 -0.0000 -0.0000 -0.1748 15.9186 -0.2160
0.00 0.00 0.00 1.9860 20.4545 -1.0410 0.0000 0.0000 0.0000 -15.7599 -13.1259 3.4498 0.2615 3.2898 9.0867 -0.0838 -7.4161 -3.0040 0.1659 -2.6240 -7.2336 0.0000 0.0000 0.0000 14.8384 3.8209 2.6160 -0.4538 -4.3218 11.9838 1.0705 -21.1122 -19.9110 -0.7731 -5.6141 15.6688 5.3091 3.4931 -1.9062 2.0768 4.5003 0.3396 -0.6688 2.2861 1.6581 -12.6133 -11.2158 -2.6050 -2.9192 -13.4771 22.5729 -0.0702 -7.6184 8.1854 -0.0000 -0.0000 0.0000 -74.8852 2.9049 32.3482 144.2250 -45.3576 -104.6378 -0.0000 -0.0000 24.0535 25.9347 16.2378 7.7440 -7.1250 0.0000 -0.0000 -1.7697 47.9168 -0.1274 -0.0000 -0.0000 0.0000 95.9756 27.8011 64.5593 -32.8404 43.2070 -13.3127 0.0000 0.0000 0.5877 -17.8742 33.8378 -10.1806 7.1250 -0.0000 -0.0000 8.0542 4.8721 8.7933
0.00 0.00 0.00 1.2344 30.1848 -2.1090 0.0000 0.0000 0.0000 -14.1965 -18.2062 2.1491 0.4473 4.2912 11.8974 -0.3817 -11.6967 -0.3088 0.1464 -2.4658 -6.7948 0.0000 0.0000 0.0000 16.7102 -2.8188 0.6886 -0.7485 -5.5263 15.4159 0.8362 -21.8066 -24.0446 -0.9958 -6.3508 17.8057 4.3130 3.2947 -2.7179 2.7073 4.1805 0.9296 0.5867 2.1350 2.5860 -13.1835 -14.0286 2.2869 2.0765 -18.8787 14.9754 1.6381 -9.8005 5.6577 -0.0000 -0.0000 0.0000 -37.3752 -16.4075 11.3744 143.6077 -45.7811 -104.1970 -0.0000 -0.0000 19.8690 17.8330 14.5765 4.6288 -7.1250 0.0000 -0.0000 -9.0135 45.0657 -0.0147 -0.0000 -0.0000 0.0000 100.9853 44.2639 64.7815 -45.1884 50.8605 -22.3848 0.0000 -0.0000 -10.4081 -23.3804 34.5603 -13.7798 7.1250 -0.0000 -0.0000 5.1436 6.7740 5.7364
0.00 0.00 0.00 1.6751 34.9189 -2.7430 0.0000 0.0000 0.0000 -14.6352 -19.1526 2.3407 0.4343 4.2292 11.7224 -0.6599 -14.4006 2.8661 0.0534 -1.4914 -4.1020 0.0000 0.0000 0.0000 16.6773 -4.4620 0.7700 -0.9434 -6.1861 17.3253 0.5484 -22.2434 -27.3774 -1.4574 -7.6302 21.5964 4.7683 3.6134 -1.4088 2.4264 4.7378 -0.2079 -0.0653 2.3814 0.7541 -13.6283 -12.5647 4.1183 5.4017 -17.5051 12.6656 3.0131 -9.0110 4.8505 0.0000 0.0000 0.0000 -22.1167 -24.6316 5.4997 129.4165 -53.2281 -93.3592 -0.0000 -0.0000 17.7335 21.9025 16.1603 6.3849 -7.1250 0.0000 -0.0000 -5.6037 47.2460 -0.3115 0.0000 0.0000 0.0000 101.6217 50.2087 61.8679 -42.8557 49.6737 -20.5907 0.0000 -0.0000 -8.8251 -28.5724 39.4719 -19.0957 7.1250 -0.0000 -0.0000 3.4333 13.1112 4.1291
0.00 0.00 0.00 1.7796 37.8898 -2.9846 0.0000 0.0000 0.0000 -14.8630 -20.0650 1.7025 0.5273 4.6532 12.9221 -0.8199 -15.8714 4.2003 0.0135 -0.7493 -2.0593 0.0000 0.0000 0.0000 16.5576 -6.7117 0.5232 -1.0095 -6.3928 17.9286 0.3678 -22.0730 -28.5206 -1.6781 -8.1607 23.2033 1.4043 3.8252 -2.9752 5.4911 4.9923 0.4838 5.1031 2.5077 1.7914 -13.8108 -11.5703 3.6606 3.8145 -15.8846 9.4625 2.7649 -8.2153 3.6688 -0.0000 -0.0000 0.0000 -17.1261 -30.7640 0.2107 114.3528 -57.6360 -80.9228 -0.0000 -0.0000 17.3535 20.3483 12.1541 4.4648 -7.1250 0.0000 -0.0000 -6.2305 42.8314 0.3348 -0.0000 -0.0000 0.0000 96.2369 56.6021 60.0342 -37.6662 46.6248 -16.7225 0.0000 -0.0000 -4.0682 -37.5549 42.3317 -27.3734 7.1250 -0.0000 -0.0000 -0.1566 18.9879 -0.1990
0.00 0.00 0.00 1.9788 39.4860 -3.1418 0.0000 0.0000 0.0000 -15.1241 -20.6846 1.6518 0.5577 4.7834 13.2919 -0.8994 -16.5373 5.1822 0.0000 0.0144 0.0396 0.0000 0.0000 0.0000 16.6355 -7.0023 0.9742 -1.0224 -6.4325 18.0447 0.3113 -22.7009 -29.8911 -1.7602 -8.3476 23.7750 2.2060 3.7811 -2.9438 5.0646 4.9109 0.3870 4.2017 2.4731 1.7850 -11.8093 -9.9502 3.5413 3.5900 -13.6501 7.1907 2.9081 -7.0287 2.9152 0.0000 0.0000 0.0000 -8.9479 -33.1312 -4.2613 100.3585 -59.5907 -68.9584 -0.0000 -0.0000 17.4043 19.6323 14.0564 4.9517 -7.1250 0.0000 -0.0000 -7.2518 44.7432 0.0462 0.0000 0.0000 0.0000 98.5208 59.7533 61.2200 -34.5766 44.5074 -14.5157 0.0000 -0.0000 -2.2160 -37.3920 38.4705 -25.4312 7.1250 -0.0000 -0.0000 -1.2891 15.0138 -1.5793
0.00 0.00 0.00 2.1027 41.9837 -3.2546 0.0000 0.0000 0.0000 -15.3251 -21.3159 1.2018 0.6051 4.9790 13.8487 -1.0177 -17.5228 6.9859 0.0391 1.2763 3.5094 0.0000 0.0000 0.0000 16.8036 -7.4893 1.6080 -0.9967 -6.3533 17.8132 0.0537 -23.0993 -32.1999 -2.3010 -9.4667 27.2665 3.2761 4.2620 -2.9555 4.8658 5.5311 0.1098 3.4168 2.7926 1.5921 -9.1044 -8.1217 2.9046 3.0233 -11.0809 4.6556 2.3912 -5.6471 1.7167 -0.0000 -0.0000 0.0000 3.3382 -36.9455 -11.1814 76.7336 -59.3244 -48.5370 -0.0000 -0.0000 16.3421 20.2126 10.9956 4.0169 -7.1250 0.0000 -0.0000 -6.1523 41.5987 0.5184 -0.0000 -0.0000 0.0000 97.4501 64.1518 58.3226 -32.6262 43.0407 -13.1662 0.0000 -0.0000 -3.5223 -34.9673 42.0922 -25.1170 7.1250 -0.0000 -0.0000 1.0016 17.8003 1.2599
0.00 0.00 0.00 5.4505 46.1403 -0.4182 0.0000 0.0000 0.0000 -17.9905 -21.2231 1.1488 0.4251 4.1843 11.5957 -0.9263 -17.3181 11.2593 0.2055 2.9188 8.0526 0.0000 0.0000 0.0000 14.7482 -8.1362 1.8739 -0.9673 -6.2618 17.5459 -0.0013 -24.9238 -35.0402 -2.7663 -10.3067 29.9757 6.3922 4.7173 -3.6064 4.0605 5.9922 -0.3220 0.9552 3.0391 1.8987 -1.8501 -2.9015 1.5332 -1.5848 -3.9739 -3.5966 -0.1171 -1.9284 -1.3584 0.0000 -0.0000 0.0000 26.7375 -37.5668 -30.9746 38.9776 -47.4523 -17.6823 -0.0000 -0.0000 19.0620 24.9345 6.1642 2.8579 -7.1250 0.0000 -0.0000 -1.5213 36.7683 0.3081 0.0000 -0.0000 0.0000 107.6824 67.6121 65.2500 -30.6203 41.4192 -11.8179 0.0000 -0.0000 -1.0279 -42.7605 39.2789 -30.3465 7.1250 -0.0000 -0.0000 -3.6890 18.0215 -4.6571
0.00 0.00 0.00 6.3850 35.0863 1.5158 0.0000 0.0000 0.0000 -18.6600 -15.2529 7.1739 0.0214 0.9441 2.5950 -0.3956 -11.1822 5.8482 0.0636 1.6266 4.4747 0.0000 0.0000 0.0000 13.8117 -0.3784 5.8440 -0.5420 -4.7167 13.1022 0.9868 -26.6809 -31.6408 -1.8111 -8.4610 24.1234 5.0750 2.9628 -7.6835 3.6540 3.4325 -1.2104 1.2982 1.7575 3.1212 -13.5091 -14.7030 1.8109 6.5731 -20.0423 5.2300 3.2076 -10.1170 3.2674 -0.0000 -0.0000 0.0000 28.8520 -26.0427 -34.9393 54.8815 -54.7841 -30.1191 -0.0000 -0.0000 19.1717 31.3545 14.6305 8.7493 -7.1250 0.0000 -0.0000 3.6654 46.9445 0.1761 -0.0000 -0.0000 0.0000 55.0231 80.9515 53.7381 -48.5179 52.3800 -24.9953 0.0000 0.0000 19.7315 -35.4028 44.0714 -26.3057 7.1250 -0.0000 -0.0000 1.4297 19.9112 1.8316
0.00 0.00 0.00 6.8362 34.1951 1.4304 0.0000 0.0000 0.0000 -19.1658 -14.0828 9.1072 0.0000 -0.0000 -0.0000 -0.3292 -10.3351 6.1029 0.0365 1.2337 3.3919 0.0000 0.0000 0.0000 13.4957 0.1395 6.2413 -0.5836 -4.8915 13.5993 1.1060 -26.9876 -31.3691 -1.5434 -7.8420 22.2352 3.9145 2.4816 -7.7713 3.4719 2.8942 -1.3564 1.6943 1.4761 2.9619 -14.7178 -14.2869 0.9751 7.0805 -19.4813 7.1844 3.3990 -9.8550 4.1110 0.0000 0.0000 0.0000 29.6574 -24.3223 -33.2752 57.3696 -55.5673 -32.1618 -0.0000 -0.0000 17.1562 30.9034 14.4211 8.4787 -7.1250 0.0000 -0.0000 3.2463 46.6371 0.1313 0.0000 0.0000 0.0000 3.5137 84.2592 5.3346 -47.6478 52.0016 -24.3079 0.0000 0.0000 21.0404 -34.3822 43.7170 -25.3089 7.1250 -0.0000 -0.0000 1.7905 19.2023 2.2807
